name processed_emg_signals
nRows=41
nColumns=7
 
endheader
time	LGLTMED	LRF	LADDLONG	LST	LTA	LGM
1.455	0.0387381060027482	0.2681721229349765	0.2305873673468572	0.078640431540672	0.3426569708485746	0.0315225142332408
1.456	0.0387421249451608	0.2675419293662568	0.2305945880122217	0.0784247211426148	0.3422576815209564	0.0315860593280799
1.457	0.0387476623207731	0.2669341890084631	0.2305532913520177	0.0781732024932906	0.3418670315954326	0.031636999076116
1.458	0.0387548799773296	0.2663479411550616	0.2304631637134553	0.0778852780723639	0.3414860070068314	0.0316756383859206
1.459	0.0387639405119972	0.2657822416671302	0.2303239470448974	0.0775603897152163	0.3411155597891862	0.0317022895844999
1.46	0.0387750068646144	0.265236163742285	0.2301354389153763	0.0771980205983619	0.3407566060178387	0.0317172717272637
1.461	0.0387882419061181	0.2647087986245545	0.2298974924934773	0.0767976972271969	0.3404100237968065	0.0317209099243588
1.462	0.038803808022318	0.2641992562610559	0.2296100164853459	0.0763589914236081	0.3400766512961816	0.0317135346838275
1.463	0.0388218666932516	0.2637066659112423	0.2292729750317253	0.0758815223107484	0.3397572848453139	0.0316954812720719
1.464	0.0388425780685555	0.2632301767139525	0.2288863875636035	0.0753649582922271	0.3394526770884762	0.0316670890920323
1.465	0.0388661005393726	0.2627689582172369	0.228450328615814	0.0748090190227866	0.3391635352101639	0.0316287010794566
1.466	0.038892590307438	0.2623222008754313	0.2279649275978706	0.0742134773676188	0.3388905192374433	0.0315806631175795
1.467	0.0389222009520367	0.2618891165174152	0.2274303685208738	0.0735781613472697	0.3386342404266106	0.0315233234704576
1.468	0.0389550829956732	0.2614689387896713	0.2268468896790834	0.0729029560651665	0.3383952597412001	0.031457032235136
1.469	0.0389913834693059	0.261060923576947	0.2262147832846395	0.0721878056146046	0.3381740864279761	0.0313821408127913
1.47	0.0390312454781326	0.2606643494029612	0.2255343950539254	0.0714327149620957	0.3379711766970388	0.0312990013989198
1.471	0.0390748077688958	0.2602785178132019	0.2248061237446565	0.0706377518037811	0.3377869325116202	0.0312079664926228
1.472	0.0391222042997486	0.2599027537412699	0.2240304206428368	0.0698030483915586	0.3376217004923246	0.0311093884249732
1.473	0.0391735638137301	0.2595364058601156	0.2232077889995332	0.0689288033254432	0.3374757709396636	0.0310036189064187
1.474	0.0392290094169396	0.2591788469188485	0.2223387834174075	0.0680152833085526	0.3373493769777556	0.0308910085931334
1.475	0.0392886581624675	0.258829474065613	0.2214240091873867	0.0670628248611089	0.3372426938210925	0.0307719066721911
1.476	0.0393526206411402	0.2584877091567558	0.2204641215760288	0.0660718359896401	0.3371558381655151	0.0306466604654743
1.477	0.0394210005802131	0.2581529990517009	0.2194598250644735	0.0650427978076596	0.3370888677037884	0.0305156150521632
1.478	0.0394938944510157	0.2578248158930183	0.2184118725400096	0.063976266103881	0.3370417807656616	0.0303791129096972
1.479	0.0395713910866068	0.2575026573703433	0.2173210644420767	0.0628728728540311	0.3370145160817997	0.0302374935729813
1.48	0.0396535713103653	0.2571860469666886	0.2161882478641558	0.0617333276723016	0.3370069526707893	0.0300910933116751
1.481	0.0397405075764276	0.2568745341860897	0.2150143156135271	0.0605584191984491	0.3370189098482493	0.0299402448252544
1.482	0.0398322636227231	0.2565676947609532	0.2138002052307273	0.0593490164166409	0.3370501473573032	0.0297852769556252
1.483	0.0399288941374134	0.2562651308377289	0.2125468979708003	0.0581060699022627	0.3371003656199286	0.029626514416915
1.484	0.0400304444393924	0.2559664711392555	0.2112554177481525	0.0568306129930708	0.3371692061088615	0.0294642775421456
1.485	0.0401369501734739	0.2556713711010565	0.2099268300467069	0.0555237628812031	0.3372562518396979	0.0292988820463873
1.486	0.040248437020919	0.2553795129791986	0.2085622407967158	0.0541867216227398	0.3373610279825266	0.029130638806014
1.487	0.0403649204257874	0.2550906059266841	0.2071627952191626	0.0528207770614166	0.3374830025920095	0.0289598536536663
1.488	0.0404864053376987	0.2548043860360878	0.2057296766386988	0.0514273036632762	0.3376215874542805	0.0287868271885165
1.489	0.040612885971445	0.2545206163468641	0.2042641052659372	0.0500077632589941	0.3377761390485971	0.0286118546014774
1.49	0.0407443455840711	0.2542390868158128	0.2027673369501335	0.0485637056906025	0.3379459596212339	0.0284352255150064
1.491	0.040880756269987	0.2539596142505122	0.2012406619027896	0.0470967693594421	0.3381302983685971	0.0282572238372175
1.492	0.0410220787747576	0.2536820422050194	0.1996854033927563	0.0456086816720621	0.3383283527259322	0.0280781276299413
1.493	0.0411682623281949	0.2534062408378392	0.1981029164127085	0.0441012593807477	0.3385392697574182	0.0278982089904119
1.494	0.0413192444972898	0.2531321067325565	0.1964945863166626	0.0425764088153792	0.3387621476427829	0.0277177339461155
1.495	0.0414749510594778	0.2528595626818358	0.1948618274277171	0.0410361260030276	0.3389960372550336	0.0275369623623373
